<svg width="120" height="96" viewBox="0 0 120 96" fill="none" xmlns="http://www.w3.org/2000/svg"><path d="M74.336 17.687l-.918 6.542M72.71 27.86l.22-1.436M84.116 23.724l-1.759 2.095M78.29 31.308l2.834-3.606" stroke="#000" stroke-width=".75" stroke-linecap="round"/><path d="M113 53.093C113 24.323 89.495 1 60.5 1S8 24.323 8 53.093" stroke="#000" stroke-width="2"/><path d="M109.748 53.164c0-26.14-23.523-48.723-49.652-48.723-26.128 0-49.65 23.511-49.65 49.652" stroke="url(#a)" stroke-width="6"/><path d="M78.813 47.825L73.93 34.372 76.37 48.21l2.442-.384z" fill="#000" stroke="#000"/><path d="M41.936 54.898l4.378 27.342a1 1 0 0 0 1.127.832l44.433-6.296a1 1 0 0 0 .85-1.132l-4.001-28.059a1 1 0 0 0-1.145-.847l-44.81 7.014a1 1 0 0 0-.832 1.146z" fill="#fff" stroke="#000" stroke-width="2"/><path d="M8 68.559l24.419-5.698" stroke="#000" stroke-width="2" stroke-linecap="round"/><path d="M51.406 77.013l20.9-3.57" stroke="#000" stroke-width=".75" stroke-linecap="round"/><path d="M29.3 41.575l3.87 27.613a1 1 0 0 0 1.137.851l42.714-6.284a1 1 0 0 0 .845-1.126l-3.872-28.061a1 1 0 0 0-1.146-.852l-42.713 6.732a1 1 0 0 0-.835 1.127z" fill="#fff" stroke="#000"/><path d="M34.142 69.372l-4.165-28.489 43.546-7.325 4.07 29.709-43.45 6.105z" fill="#FB528D" stroke="#000" stroke-width="2"/><path d="M35.345 48.866l16.95-2.447M35.54 51.674l13.066-1.978" stroke="#000" stroke-linecap="round"/><path d="M20.21 90.535h15.466" stroke="#000" stroke-width="2" stroke-linecap="round"/><path d="M38.93 90.535H43M95.094 90.535h4.884" stroke="#000" stroke-linecap="round"/><path d="M47.07 90.535h44.768" stroke="#000" stroke-width="2" stroke-linecap="round"/><path d="M31.2 53.908l15.522-15.682 11.338-1.818-25.233 27.267-1.628-9.767z" fill="#fff"/><path d="M52.884 71.993l-1.676.114a.65.65 0 0 0 .104 1.298l.934-.085a.652.652 0 1 1 .105 1.3l-1.627.114M51.395 71l.772 4.722" stroke="#000" stroke-width=".75"/><path d="M13.695 70.186l17.907-4.07" stroke="#000" stroke-linecap="round"/><path d="M77.188 50.244l9.28-1.16a.5.5 0 0 1 .557.425l3.523 24.663a.5.5 0 0 1-.42.565L48.377 81.1a.5.5 0 0 1-.569-.415L46.257 71" stroke="#000"/><defs><linearGradient id="a" x1="60.096" y1="4.441" x2="60.096" y2="54.093" gradientUnits="userSpaceOnUse"><stop stop-color="#1AA5BD"/><stop offset="1" stop-color="#188CAE"/></linearGradient></defs></svg>