<svg width="120" height="96" viewBox="0 0 120 96" fill="none" xmlns="http://www.w3.org/2000/svg"><g clip-path="url(#a)"><path d="M52.39 14.397H17.05l3.927-.982 30.43-.327" stroke="#000"/><path d="M11.587 68.665L2 30.757h83.11L77.25 68.38a7 7 0 0 1-6.852 5.569H18.373a7 7 0 0 1-6.786-5.284z" fill="url(#b)" stroke="#000" stroke-width="2"/><path d="M3.309 77.875h71.555a6 6 0 0 0 5.837-4.61l11.36-47.733a13.638 13.638 0 0 1 13.268-10.48h6.066c.519 0 1.04.086 1.531.253 2.73.927 2.486 4.909-.356 5.391-.26.044-.524.067-.789.067h-3.767" stroke="#000" stroke-width="2"/><path d="M15.743 60.206V31.085l.327-2.29 35.01-12.108 1.31 44.5-36.647-.981z" fill="#fff"/><path d="M52.715 14.397l5.184-.818a1 1 0 0 1 1.15.876l4.469 39.818a1 1 0 0 1-.375.896l-8.464 6.673m8.9-50.499l1.192-6.116a2 2 0 0 1 2.301-1.588l15.319 2.624a2 2 0 0 1 1.615 2.4l-10.641 48.58a2 2 0 0 1-2.054 1.57l-11.397-.57M43.227 0a7.881 7.881 0 0 1 6.855 8.299l-.071 1.154M15.087 37.301l-.94 23.829a1 1 0 0 0 .999 1.039h37.528a1 1 0 0 0 1-1.022l-1.044-46.75H17.05l-1.963 22.904z" stroke="#000" stroke-width="2"/><circle cx="25.23" cy="83.438" r="4.063" stroke="#000" stroke-width="3"/><circle cx="60.57" cy="83.438" r="4.063" stroke="#000" stroke-width="3"/><path d="M5.926 32.066h8.508M61.551 32.066h26.831" stroke="#fff" stroke-width="2"/><circle cx="24.903" cy="18.324" r="2.118" fill="#fff" stroke="#000"/><circle cx="43.882" cy="18.323" r="2.118" stroke="#000"/><path d="M24.906 18.324V11.18a9.218 9.218 0 0 1 9.218-9.218c5.39 0 9.76 4.37 9.76 9.76v6.6" stroke="#000" stroke-width="2"/><path d="M27.523 28.14v-3.927l3.273 2.417-3.273 1.51zM45.844 58.243v-3.927l3.272 2.416-3.272 1.51zM30.796 38.17l3.34-2.177-.15 4.262-3.19-2.085zM16.723 23.886l2.359-2.29-.15 4.263-2.209-1.973zM14.433 56.494l3.34-2.178-.15 4.263-3.19-2.085zM29.484 54.496l1.996-3.452 1.792 3.87-3.788-.418zM19.668 43.37l1.996-3.451 1.792 3.87-3.788-.418zM45.847 42.716l1.997-3.451 1.791 3.87-3.788-.419zM42.783 29.269l-1.314-3.765 4.103 1.168-2.79 2.597z" fill="#FB528D" stroke="#FB528D"/><path d="M58.278 14.07l-5.235.981.982 45.81 8.18-6.218-3.927-40.573z" fill="#fff"/><rect x="105.398" y="17.015" width="12.434" height="3.926" rx="1.963" fill="#000"/><path d="M55.012 53.34L53.7 49.575l4.102 1.168-2.789 2.597zM53.046 21.155l3.34-2.177-.15 4.263-3.19-2.086zM56.973 36.148l3.984-.155-2.316 3.582-1.668-3.427z" fill="#FB528D" stroke="#FB528D"/><path d="M56.969 76.566l3.599 6.871 4.254-6.87M18.36 80.493l7.199 2.29-5.89 4.908" stroke="#000"/></g><defs><linearGradient id="b" x1="43.555" y1="30.757" x2="43.555" y2="73.948" gradientUnits="userSpaceOnUse"><stop stop-color="#1AA5BD"/><stop offset="1" stop-color="#188CAE"/></linearGradient><clipPath id="a"><path fill="#fff" d="M0 0h120v96H0z"/></clipPath></defs></svg>