<svg width="30" height="35" viewBox="0 0 30 35" fill="none" xmlns="http://www.w3.org/2000/svg"><path fill-rule="evenodd" clip-rule="evenodd" d="M3.164 19.646c-1.743 0-3.156-1.394-3.156-3.113 0-1.72 1.413-3.114 3.156-3.114.637 0 1.23.186 1.725.506l8.598 5.72H3.163zm.872-7.006a3.088 3.088 0 0 1-.926-4.305c.948-1.441 2.9-1.85 4.36-.915.514.328.919.798 1.166 1.35l4.394 9.892-8.994-6.022zm22.79 7.009c1.747 0 3.164-1.395 3.164-3.117 0-1.72-1.417-3.116-3.164-3.116-.638 0-1.232.186-1.728.506L16.48 19.65h10.346zm-.872-7.01a3.089 3.089 0 0 0 .93-4.308c-.951-1.443-2.908-1.853-4.371-.916a3.11 3.11 0 0 0-1.169 1.352l-4.403 9.901 9.013-6.028zM16.25 6.783c-.225.172-.843.266-.709 1.352l1.334 9.215 4.45-10.045c.71-1.573-.008-3.415-1.605-4.116-1.597-.7-3.469.007-4.18 1.58a3.064 3.064 0 0 0-.253 1.621l.838-.001c.475.023.725.148.125.394zm-7.584.525c-.71-1.572.007-3.413 1.6-4.113 1.595-.7 3.462.008 4.172 1.58.25.551.331 1.163.233 1.76l-1.565 10.808-4.44-10.035zM27.982 31.67c-.51.205-1.27.413-1.975.413-3.218 0-5.828-2.44-5.828-5.45 0-3.011 2.61-5.451 5.828-5.451.693 0 1.452.166 1.975.403v2.084a3.616 3.616 0 0 0-1.975-.583c-1.987 0-3.598 1.588-3.598 3.546 0 1.958 1.611 3.546 3.598 3.546.726 0 1.41-.212 1.975-.576v2.068zM8.618 21.538h2.14v10.415L4.17 26.012v5.713h-2.14V21.313l6.587 5.94v-5.715zm9.31 4.743c.653-.478 1.221-.934 1.216-2.137-.007-1.584-1.304-2.616-2.913-2.616h-4.246v10.207h4.762c1.687 0 2.97-1.264 2.97-2.925 0-1.66-1.39-2.385-1.79-2.53zm-3.792-3.21h1.59c.745 0 1.349.594 1.349 1.327s-.604 1.328-1.348 1.328h-1.59V23.07zm1.937 7.132h-1.936V27.25l1.936-.008c.83 0 1.503.663 1.503 1.48 0 .818-.673 1.48-1.503 1.48z" fill="#272727"/></svg>