<svg width="228" height="42" viewBox="0 0 228 42" fill="none" xmlns="http://www.w3.org/2000/svg">
<path d="M21.259 41.052C32.6143 41.052 41.8196 31.8851 41.8196 20.5771C41.8196 9.26919 32.6143 0.102295 21.259 0.102295C9.90367 0.102295 0.698364 9.26919 0.698364 20.5771C0.698364 31.8851 9.90367 41.052 21.259 41.052Z" fill="#000036"/>
<path d="M50.918 23.7164V9.16284H57.4372V21.7902C57.4372 24.2871 57.7238 26.7127 61.0192 26.7127C64.3146 26.7127 64.6012 24.2871 64.6012 21.7902V9.16284H71.1204V23.645C71.1204 29.281 67.5384 32.3486 61.0192 32.3486C54.3567 32.42 50.918 29.281 50.918 23.7164Z" fill="#000036"/>
<path d="M72.8397 29.0668L75.9919 24.715C77.1381 26.1418 79.144 27.3546 81.3649 27.3546C83.0842 27.3546 84.0872 26.6412 84.0872 25.2858C84.0872 23.7163 82.6544 23.2169 80.147 22.5035C76.8516 21.5047 73.9143 19.7925 73.9143 15.8688C73.9143 11.5883 77.4963 8.66333 82.5111 8.66333C86.0215 8.66333 88.6005 9.73344 90.3198 11.3029L87.3826 15.6547C86.4513 14.5846 84.8752 13.6572 82.8693 13.6572C81.1499 13.6572 80.4335 14.3706 80.4335 15.2267C80.4335 16.6535 82.1529 17.0102 84.0155 17.6523C87.7408 18.7937 90.6064 20.5059 90.6064 24.715C90.6064 29.0668 87.4543 32.3485 81.7231 32.3485C77.4963 32.4198 74.2725 30.6363 72.8397 29.0668Z" fill="#000036"/>
<path d="M99.3463 9.16284H106.51L115.035 31.9206H108.23L107.155 28.6389H98.5583L97.4837 31.9206H90.8212C90.8928 31.9206 99.3463 9.16284 99.3463 9.16284ZM105.507 23.5024L103.716 18.0091C103.358 16.939 103.072 15.5835 102.928 14.5847H102.713C102.57 15.5835 102.284 16.939 101.925 18.0091L100.134 23.5024H105.507Z" fill="#000036"/>
<path d="M124.492 14.4421H118.832V9.16284H136.671V14.4421H131.011V31.9206H124.492V14.4421Z" fill="#000036"/>
<path d="M137.101 20.5772C137.101 14.9413 141.112 8.73462 149.638 8.73462C158.163 8.73462 162.175 15.0126 162.175 20.5772C162.175 26.1418 158.163 32.3484 149.638 32.3484C141.112 32.4198 137.101 26.2131 137.101 20.5772ZM155.512 20.5772C155.512 16.5108 152.861 14.3705 149.638 14.3705C146.485 14.3705 143.835 16.5108 143.835 20.5772C143.835 24.6436 146.485 26.7125 149.638 26.7125C152.79 26.7125 155.512 24.6436 155.512 20.5772Z" fill="#000036"/>
<path d="M164.539 9.16284H172.992C181.087 9.16284 185.672 13.4433 185.672 20.5774C185.672 27.5688 180.944 31.9919 172.992 31.9919H164.539V9.16284ZM171.129 26.7127H172.562C176.789 26.7127 179.01 24.7152 179.01 20.5774C179.01 16.4396 176.789 14.4421 172.562 14.4421H171.129V26.7127Z" fill="#000036"/>
<path d="M193.266 9.16284H200.43L208.955 31.9206H202.149L201.075 28.6389H192.478L191.403 31.9206H184.741C184.813 31.9206 193.266 9.16284 193.266 9.16284ZM199.427 23.5024L197.636 18.0091C197.278 16.939 196.991 15.5835 196.848 14.5847H196.633C196.49 15.5835 196.203 16.939 195.845 18.0091L194.054 23.5024H199.427Z" fill="#000036"/>
<path d="M212.107 23.859L203.582 9.23413H210.746L213.827 14.8701C214.472 16.0829 215.403 17.8664 215.618 19.0792H215.761C215.976 17.8664 216.836 16.0829 217.552 14.8701L220.633 9.23413H227.582L219.056 23.859V31.9919H212.179V23.859H212.107Z" fill="#000036"/>
</svg>
