<svg width="127" height="37" viewBox="0 0 127 37" fill="none" xmlns="http://www.w3.org/2000/svg"><path d="M15.132 1.26c.253 0 .379.126.63.252-1.513.63-3.026 2.268-3.783 5.796l-2.774.756c.883-2.52 2.648-6.804 5.927-6.804zm1.388 1.26c.252.756.504 1.638.504 3.024v.252l-3.657 1.008c.756-2.646 2.018-3.78 3.153-4.284zm3.279 2.268l-1.64.504v-.378c0-1.134-.126-2.016-.378-2.772.883.252 1.64 1.386 2.018 2.646zm8.198 2.016a.271.271 0 0 0-.253-.252c-.252 0-2.9-.252-2.9-.252s-1.892-1.89-2.145-2.016c-.252-.252-.63-.126-.756-.126 0 0-.379.126-1.01.378-.63-1.764-1.765-3.402-3.657-3.402h-.126A2.231 2.231 0 0 0 15.258.126C10.718 0 8.574 5.67 7.818 8.568c-1.01.252-2.018.63-3.154 1.008-1.009.252-1.009.378-1.135 1.26-.126.63-2.648 20.537-2.648 20.537l20.053 3.78 10.846-2.395S27.996 7.056 27.996 6.804z" fill="#8DB849"/><path d="M27.617 6.551c-.126 0-2.775-.252-2.775-.252s-1.892-1.89-2.144-2.016c-.126-.126-.126-.126-.252-.126l-1.514 30.995 10.847-2.394S27.995 7.055 27.995 6.803c0-.126-.252-.252-.378-.252z" fill="#5A863E"/><path d="M17.28 12.6l-1.388 4.031s-1.135-.63-2.648-.63c-2.144 0-2.27 1.26-2.27 1.638 0 1.764 4.792 2.52 4.792 6.804 0 3.401-2.144 5.543-5.045 5.543-3.405 0-5.17-2.142-5.17-2.142l.882-3.023s1.766 1.511 3.28 1.511c1.008 0 1.387-.756 1.387-1.385 0-2.394-3.91-2.52-3.91-6.426 0-3.276 2.396-6.426 7.063-6.426 2.144-.126 3.027.504 3.027.504z" fill="#FFFFFE"/><path d="M44.519 20.033c-1.135-.63-1.64-1.134-1.64-1.764 0-.882.757-1.386 2.018-1.386 1.387 0 2.649.63 2.649.63l1.008-3.024s-.882-.756-3.53-.756c-3.784 0-6.307 2.142-6.307 5.166 0 1.764 1.261 3.024 2.775 3.906 1.261.756 1.766 1.26 1.766 2.016s-.631 1.512-1.892 1.512c-1.766 0-3.532-.882-3.532-.882l-1.009 3.024s1.514 1.008 4.162 1.008c3.784 0 6.559-1.89 6.559-5.292 0-1.89-1.388-3.276-3.027-4.158zm15.26-6.426c-1.892 0-3.405.882-4.54 2.268l1.64-8.567H52.59l-4.162 21.797h4.288l1.388-7.434c.504-2.772 2.018-4.536 3.405-4.536 1.009 0 1.387.63 1.387 1.638 0 .63 0 1.26-.126 1.89l-1.64 8.568h4.289l1.64-8.82c.125-.882.251-2.016.251-2.772 0-2.52-1.26-4.032-3.53-4.032zm10.972 12.474c-1.513 0-2.017-1.26-2.017-2.772 0-2.394 1.26-6.426 3.53-6.426 1.514 0 2.019 1.26 2.019 2.52 0 2.772-1.261 6.678-3.532 6.678zm2.144-12.474c-5.17 0-8.576 4.662-8.576 9.828 0 3.276 2.018 5.922 5.928 5.922 5.045 0 8.45-4.536 8.45-9.828 0-3.024-1.766-5.922-5.802-5.922zm12.612 12.6c-1.135 0-1.765-.63-1.765-.63l.757-4.032c.504-2.646 1.891-4.41 3.405-4.41 1.26 0 1.765 1.26 1.765 2.394-.126 2.772-1.765 6.678-4.162 6.678zm4.162-12.6c-2.9 0-4.54 2.52-4.54 2.52l.252-2.268h-3.783c-.126 1.512-.505 3.906-.883 5.67l-3.027 15.623h4.288l1.135-6.3h.126s.883.505 2.523.505c5.044 0 8.323-5.166 8.323-10.332 0-2.772-1.26-5.418-4.414-5.418zm10.468-6.047c-1.387 0-2.396 1.134-2.396 2.52 0 1.26.757 2.142 2.018 2.142 1.387 0 2.522-.882 2.522-2.52 0-1.26-.883-2.142-2.144-2.142zM94.21 29.105h4.288l2.9-15.12H97.11l-2.9 15.12zm18.035-15.12h-3.027l.126-.755c.252-1.513 1.135-2.772 2.522-2.772a4.17 4.17 0 0 1 1.388.252l.882-3.402s-.756-.378-2.27-.378c-1.513 0-3.027.378-4.162 1.386-1.513 1.26-2.144 3.024-2.522 4.787l-.126.756h-2.018l-.631 3.276h2.018l-2.27 11.97h4.288l2.27-11.97h2.901l.631-3.15zm10.215 0s-2.648 6.678-3.909 10.332c-.127-1.134-1.009-10.332-1.009-10.332h-4.541l2.523 13.86c0 .252 0 .504-.126.756-.505 1.008-1.388 1.89-2.271 2.52-.756.63-1.765 1.007-2.396 1.26l1.135 3.653c.883-.126 2.649-.882 4.162-2.268 1.892-1.764 3.784-4.661 5.549-8.441l5.171-11.214-4.288-.126z" fill="#1A1919"/></svg>