<svg width="111" height="36" viewBox="0 0 111 36" fill="none" xmlns="http://www.w3.org/2000/svg"><path d="M26.98 16.639l-.184.978h-.056c-.24-.537-.905-1.305-2.382-1.305-2.383 0-4.82 1.92-5.356 4.931-.462 2.648.757 4.97 3.583 4.97 1.034 0 2.216-.423 2.844-1.324h.055l-.166.997h2.641l1.644-9.247H26.98zm-.868 4.604c-.166.902-.997 2.38-2.66 2.38-1.625 0-1.957-1.478-1.81-2.341.185-1.055 1.09-2.38 2.642-2.38 1.514.02 2.031 1.267 1.828 2.341zM31.097 16.639h2.475l-.166.978h.055c.314-.441.942-1.305 2.456-1.305l-.498 2.802c-1.256.019-2.161.287-2.401 1.707l-.905 5.065h-2.66l1.644-9.247zM37.693 13.031h2.678l-1.256 6.965h.037l3.084-3.358h3.14l-4.063 4.068 2.327 5.18h-3.01l-1.718-4.451h-.055l-.776 4.45h-2.678l2.29-12.854z" fill="#272727"/><path d="M49.643 16.313c-2.696 0-5.097 2.417-5.54 4.988-.5 2.744 1.292 4.892 3.841 4.892.905 0 1.847-.288 2.66-.844.85-.537 1.625-1.324 2.216-2.36h-2.715c-.443.48-.96.864-1.773.864-1.034 0-1.81-.653-1.755-1.746h6.668c.074-.211.13-.384.184-.73.518-2.82-1.07-5.064-3.786-5.064zm-2.696 3.933c.203-.538.942-1.593 2.327-1.593s1.718 1.036 1.718 1.593h-4.045zM15.474 13.031l-4.691 7.33h-.037v-7.33H8.474L.144 25.886h3.233l4.672-7.33h.037v7.33h2.29l4.673-7.33h.037v7.33h2.678V13.03h-2.29zM60.188 16.638h-1.68l.498-2.744h-2.327l-.185 1.056c-.203 1.209-.942 1.573-1.902 1.688h-.019l-.406 2.091h1.311l-1.274 7.138h2.66l1.274-7.138h1.699l.351-2.09zM101.354 22.394c-.868 2.09-2.955 3.818-5.356 3.818-2.696 0-4.377-2.207-3.897-4.97.499-2.705 2.9-4.911 5.578-4.911 2.345 0 3.971 1.63 4.026 3.895h-2.697c-.166-.653-.572-1.305-1.699-1.305-1.255-.058-2.29.998-2.53 2.34-.24 1.363.425 2.36 1.7 2.36 1.089 0 1.754-.652 2.142-1.247l2.733.02zM79.32 9.75l-5.171 3.28h1.46l-4.692 7.33h-.055v-7.33h-2.29l-4.673 7.33h-.056v-7.33h-2.66v12.856h2.328l4.69-7.33h.056v7.33h2.29L78.84 13.03h1.311l-.83-3.281zm5.043 16.136H81.72l.167-.998h-.056c-.628.901-1.81 1.324-2.844 1.324-2.826 0-4.045-2.303-3.583-4.97.517-3.012 2.973-4.93 5.356-4.93 1.459 0 2.142.748 2.383 1.304h.055l.185-.978h2.64l-1.662 9.247zm-4.47-2.245c1.644 0 2.475-1.478 2.66-2.38.184-1.112-.314-2.34-1.829-2.34-1.533 0-2.438 1.324-2.641 2.379-.148.863.185 2.34 1.81 2.34zm12.78-7.003h-1.662l.499-2.744h-2.327l-.185 1.055c-.203 1.21-.942 1.574-1.902 1.689h-.037l-.388 2.091h1.311l-1.274 7.137h2.66l1.274-7.137h1.7l.332-2.091zm11.193-3.607h2.66l-.813 4.585h.055c.573-.863 1.33-1.304 2.512-1.304.85 0 1.81.326 2.253 1.036.573.901.517 1.707.203 3.357l-.904 5.161h-2.66l.886-5.026c.074-.442.333-1.938-1.071-1.938-1.496 0-1.754 1.381-1.828 1.842l-.905 5.122h-2.66l2.272-12.835z" fill="#272727"/></svg>