<svg width="70" height="33" viewBox="0 0 70 33" fill="none" xmlns="http://www.w3.org/2000/svg"><path d="M8.156 11.927V2.671c0-.343.034-.549.615-.549h7.821c1.367 0 2.118 1.166 2.665 3.36l.444 1.749h1.331c.24-4.971.444-7.13.444-7.13s-3.347.376-5.328.376H6.142L.779.306v1.44l1.81.342c1.264.24 1.57.514 1.674 1.68 0 0 .103 3.429.103 9.085 0 5.656-.103 9.05-.103 9.05 0 1.03-.41 1.406-1.674 1.647l-1.81.343v1.439l5.363-.171h8.948c2.015 0 6.694.17 6.694.17.102-1.233.786-6.822.888-7.438h-1.264l-1.332 3.051c-1.059 2.4-2.595 2.571-4.303 2.571h-5.09c-1.707 0-2.527-.686-2.527-2.16V13.54s3.723 0 5.02.103c.957.069 1.537.343 1.845 1.68l.41 1.783h1.468l-.102-4.492L17 8.088h-1.468l-.478 1.988c-.308 1.303-.512 1.544-1.844 1.68-1.503.172-5.055.138-5.055.138v.034zM28.41 3.631c-.478 2.126-.956 3.771-2.63 4.868-1.024.686-2.05.925-2.458.96v1.302h3.04v10.525c0 2.949 1.946 4.389 4.541 4.389 2.016 0 4.099-.857 4.816-2.64l-.717-.926c-.342.583-1.434 1.44-2.8 1.44-1.503 0-2.323-1.029-2.323-3.634v-9.29l5.055.377.273-2.332-5.328.206v-5.21L28.41 3.63zM39.202 19.82l-1.298.034c.068.754.103 1.714.103 2.605 0 .926-.034 1.783-.103 2.194 0 0 2.596.96 5.226.96 3.552 0 6.387-1.715 6.387-5.075 0-5.758-8.607-4.901-8.607-8.776 0-1.61 1.434-2.228 3.005-2.228 1.23 0 2.255.446 2.46 1.098l.853 2.57 1.264-.068c.103-1.371.17-2.948.376-4.216-1.093-.48-3.382-.755-4.815-.755-3.348 0-6.045 1.474-6.045 4.765 0 5.725 8.4 4.56 8.4 8.777 0 1.508-.922 2.57-3.005 2.57-1.912 0-2.868-.993-3.243-1.988l-.958-2.467zm20.585 3.96c-1.977 5.544-4.398 6.98-6.58 6.98-.92 0-1.363-.41-1.5-1.06l-.511-2.67-1.432.069c-.273 1.574-.546 3.32-.92 4.757.852.65 2.283.992 3.409.992 2.353 0 5.932-.308 9.204-8.11l5.49-13.003c.443-1.061.612-1.164 1.908-1.678l.716-.273V8.586l-3.239.171-3.477-.17v1.197l.886.273c.886.275 1.296.617 1.296 1.233 0 .307-.103.616-.274 1.094-.511 1.301-3.682 9.035-4.533 10.678l.851-.309c-1.5-3.73-3.783-9.958-4.124-11.018a1.709 1.709 0 0 1-.103-.549c0-.547.375-.992 1.194-1.163l1.125-.239V8.587l-4.671.17-3.716-.17v1.197l.614.205c.852.274 1.057.514 1.568 1.711 2.829 6.503 4.159 10.06 5.965 14.715l.854-2.635z" fill="#F27224"/></svg>