<svg viewBox="0 0 173 64"  width="173" height="64" fill="none" xmlns="http://www.w3.org/2000/svg">
                <path d="M70.992.611v14.2c.115-.128.183-.196.25-.27 1.625-1.869 3.71-2.776 6.153-2.89 1.645-.075 3.242.162 4.725.92 2.192 1.11 3.505 2.944 4.236 5.239.434 1.353.603 2.748.603 4.169.007 5.428 0 10.85 0 16.278v.318h-9.307v-.427c0-4.602.014-9.205-.013-13.807a7.875 7.875 0 00-.291-2.064c-.318-1.124-1.09-1.835-2.26-2.01-1.253-.19-2.363.101-3.162 1.157-.602.792-.839 1.72-.86 2.694-.033 1.4-.013 2.795-.013 4.196V38.575h-9.306v-.467V1.092c0-.156-.014-.311-.02-.474 3.086-.007 6.179-.007 9.265-.007zM172.181.679c-.521 1.232-1.042 2.464-1.557 3.702-2.734 6.593-5.462 13.185-8.189 19.784-.082.196-.17.305-.407.298-3.472-.007-6.944-.007-10.416-.007-.088 0-.176-.013-.325-.02L161.149.61h10.761c.095 0 .183.048.271.068zM49.687 14.662v-2.383h8.941v26.289H49.68v-2.396c-.074.067-.108.088-.135.114-1.333 1.645-3.107 2.512-5.157 2.823-5.523.84-10.701-1.976-12.975-7.263-2.403-5.583-1.882-10.95 1.942-15.77 2.45-3.08 5.767-4.568 9.726-4.413 2.538.102 4.779.968 6.491 2.945.014.013.034.013.115.054zM39.02 25.45c0 3.052 2.37 5.407 5.435 5.414 3.046.007 5.415-2.355 5.422-5.387.006-3.06-2.363-5.435-5.415-5.435-3.066.006-5.442 2.362-5.442 5.408zM7.201 48.328c.4-.947.779-1.848 1.165-2.748.913-2.166 1.827-4.338 2.754-6.504a.645.645 0 000-.569C7.465 29.912 3.817 21.302.176 12.7c-.054-.129-.108-.264-.176-.433h.413c3.093 0 6.18.006 9.272-.007.291 0 .427.081.535.358 1.909 4.9 3.824 9.794 5.74 14.694.04.102.08.204.149.366.06-.135.101-.217.135-.298 1.936-4.914 3.878-9.82 5.807-14.734.115-.285.244-.38.555-.38 2.998.014 6.004.007 9.002.007h.4c-.035.109-.055.197-.082.278C27.012 24.395 22.1 36.24 17.192 48.09c-.075.19-.163.285-.386.285-3.1-.007-6.207-.007-9.307-.007-.08-.014-.162-.027-.298-.04zM88.861 25.465c.034-6.89 4.623-12.413 11.439-13.583 4.507-.772 8.643.169 12.162 3.208 2.545 2.193 3.994 5.022 4.44 8.345.467 3.5-.155 6.789-2.125 9.753-2.186 3.283-5.299 5.191-9.157 5.855-3.351.575-6.6.169-9.611-1.476-3.96-2.152-6.248-5.516-6.945-9.956-.115-.704-.142-1.428-.203-2.146zm14.119 5.287c2.978 0 5.239-2.295 5.245-5.293 0-3.005-2.26-5.293-5.238-5.3-2.999-.007-5.26 2.288-5.26 5.306.008 3.012 2.275 5.293 5.253 5.287zM146.805 25.45c-.041 6.864-4.582 12.36-11.371 13.565-4.271.758-8.244-.055-11.709-2.762-2.829-2.213-4.453-5.164-4.948-8.71-.48-3.439.102-6.681 1.99-9.619 2.214-3.438 5.415-5.414 9.422-6.07 3.201-.529 6.308-.15 9.205 1.353 4.108 2.132 6.491 5.537 7.208 10.098.115.704.135 1.428.203 2.146zm-14.119 5.3c2.978.007 5.246-2.274 5.253-5.279.006-3.012-2.248-5.3-5.219-5.313-2.998-.007-5.272 2.281-5.272 5.293 0 3.005 2.26 5.3 5.238 5.3zM109.971 49.913v-1.53h5.354V63.26h-5.347v-1.462c-.251.23-.461.446-.691.636-1.259 1.056-2.734 1.4-4.331 1.225-2.532-.278-4.373-1.624-5.422-3.905-1.455-3.168-1.272-6.288.806-9.151 1.759-2.43 4.995-3.31 7.634-2.213a4.776 4.776 0 011.997 1.523zm.149 5.895c0-1.672-1.354-3.005-3.053-3.005-1.712-.007-3.086 1.34-3.079 3.018.006 1.672 1.353 2.999 3.059 2.999 1.726.006 3.08-1.313 3.073-3.012zM87.912 63.265h-5.441v-14.89h5.428v1.651c.088-.094.129-.128.156-.169 1.082-1.495 2.592-2.023 4.372-1.902 2.734.19 4.257 2.065 4.616 4.501.074.501.101 1.009.101 1.516.007 2.958.007 5.91.007 8.867v.42h-5.455v-.38c0-2.524.007-5.055-.007-7.58 0-.42-.067-.86-.196-1.259-.217-.69-.724-1.07-1.448-1.13-.745-.061-1.354.183-1.754.846-.29.487-.379 1.029-.379 1.59V63.266zM123.076 48.376v1.55c.04.02.074.048.115.068.02-.054.02-.115.054-.156 1.069-1.475 2.565-1.996 4.318-1.881 2.856.19 4.366 2.18 4.684 4.697.054.4.074.812.074 1.211.007 3.033.007 6.072 0 9.104 0 .088-.007.176-.013.291h-5.456v-.4c0-2.517.007-5.028-.006-7.546 0-.413-.048-.84-.163-1.232-.216-.71-.731-1.117-1.489-1.178-.765-.054-1.367.217-1.76.894-.297.514-.352 1.083-.352 1.665v7.797h-5.428V48.37c1.787.006 3.581.006 5.422.006zM161.478 60.045c-.745 1.252-1.739 2.22-3.053 2.802-2.571 1.13-5.191 1.191-7.783.108-2.132-.887-3.438-2.545-3.98-4.772-.609-2.49-.365-4.88 1.171-7.005 1.712-2.369 4.108-3.35 6.985-3.222 1.435.061 2.775.467 3.966 1.286 1.794 1.239 2.748 2.999 3.107 5.11.156.928.189 1.862.074 2.83h-10.274c.027.575.237 1.028.596 1.421 1.096 1.184 3.221 1.144 4.318-.102.196-.223.345-.23.595-.135 1.395.548 2.796 1.083 4.19 1.618.02.006.034.027.088.06zm-4.758-5.977c-.095-1.259-1.259-2.118-2.701-2.003-1.299.101-2.342 1.029-2.254 2.003h4.955zM72.812 52.741h-3.634V63.26H63.75V52.741h-1.99V48.37h1.956c.034-.589.047-1.144.108-1.685.203-1.679.84-3.154 2.193-4.237 1.103-.887 2.403-1.26 3.79-1.347 1.009-.061 2.004.007 2.965.365.169.061.284.129.284.352-.013 1.354-.007 2.708-.007 4.061a.457.457 0 01-.02.129c-.5-.088-.981-.223-1.469-.244-1.624-.074-2.517.907-2.362 2.593h3.614v4.385zM145.364 53.545c-.677-.223-1.307-.528-1.97-.63a4.96 4.96 0 00-1.868.096c-1.408.345-2.22 1.489-2.186 2.91.034 1.36.927 2.437 2.315 2.755 1.191.277 2.301.06 3.35-.549.095-.054.196-.115.291-.169.007-.006.02.007.061.02 0 .061.007.136.007.21 0 1.47 0 2.931.006 4.4 0 .176-.033.284-.209.365-3.114 1.483-7.946.806-10.166-2.761-1.983-3.188-1.699-8.657 2.47-11.093 2.423-1.415 4.995-1.544 7.608-.515.121.047.284.196.284.305.013 1.57.007 3.133.007 4.656zM154.183 26.764c3.438.013 6.037 2.653 6.023 6.098-.02 3.486-2.781 6.206-6.301 6.193-3.37-.014-6.003-2.687-5.983-6.078a6.232 6.232 0 016.261-6.213zM80.166 63.265h-5.422V48.368h5.422v14.897zM77.43 46.98c-1.672-.006-3.053-1.38-3.04-3.031.014-1.638 1.402-2.992 3.053-2.992 1.692 0 3.093 1.394 3.073 3.039-.02 1.658-1.401 2.992-3.086 2.985z" fill="#000036" />
              </svg>