<svg width="73" height="36" viewBox="0 0 73 36" fill="none" xmlns="http://www.w3.org/2000/svg"><g clip-path="url(#a)" fill-rule="evenodd" clip-rule="evenodd" fill="#272727"><path d="M62.596 6.005c-5.746 0-10.405 4.873-10.405 10.885s4.658 10.885 10.405 10.885c5.747 0 10.405-4.873 10.405-10.885S68.343 6.005 62.596 6.005zm0 17.28c-4.273-.02-7.748-2.955-9.587-6.473 1.858-3.499 5.35-6.337 9.587-6.337 4.31 0 7.766 2.819 9.587 6.337-1.82 3.518-5.239 6.492-9.587 6.472z"/><path d="M62.597 22.663c3.047 0 5.518-2.585 5.518-5.773 0-3.188-2.47-5.772-5.518-5.772-3.047 0-5.517 2.584-5.517 5.772s2.47 5.773 5.517 5.773zM17.275 6.583h9.308c3.954 0 6.707 2.54 6.707 5.13 0 1.938-.701 3.77-4.605 4.66 1.502.21 5.606 1.361 5.606 5.445 0 4.084-4.304 6.073-7.257 6.073h-9.76v-.21h9.66c2.302 0 3.753-.994 3.753-5.549 0-4.555-1.602-5.602-3.603-5.654H24.08v-.21h3.178c1.301 0 2.677-.209 2.677-4.607 0-4.397-1.651-4.869-3.403-4.869h-2.452v20.89h-3.704V6.792h-3.103v-.209zM4.132 17.371c0-8.063 2.251-10.942 4.904-10.942 3.753 0 5.805 5.812 6.456 8.063V6.69c-.651.523-.951.785-1.652.785-.7 0-1.752-.366-2.252-.68-.5-.315-1.501-.576-2.502-.576C5.783 6.22.027 10.774.027 17.37c0 7.8 5.105 11.152 9.059 11.152 1 0 2.102-.419 2.602-.734.5-.314 1.451-.733 2.152-.733.7 0 1.001.262 1.652.786v-7.853c-.551 3.036-2.703 8.324-6.456 8.324-1.076 0-2.552-.524-3.228-1.256-.208-.226-1.676-1.31-1.676-9.686zm43.494 6.328c-.05 1.727-1.301 4.031-3.904 3.979-2.602-.053-5.755-2.095-6.956-7.592v7.434c.5-.47 1.351-1.308 2.703-.68 1.35.628 3.353 1.047 4.253 1.047.901 0 5.856-.995 6.056-6.963a5.119 5.119 0 0 0-3.253-4.974c-1.452-.576-3.503-1.256-4.705-1.675-1.2-.419-3.152-1.728-3.103-4.136.05-2.409 1.452-3.717 3.354-3.717 1.901 0 4.454 1.57 5.755 7.12V6.16c-.75.68-1.352.995-1.802.995-.4 0-1.563-.478-2.151-.668-.651-.209-1.29-.288-2.103-.274-1.426.023-4.78 1.832-5.005 6.701-.164 3.558 2.353 4.922 3.504 5.34 1 .366 3.904 1.466 4.754 1.833.851.366 2.703 1.622 2.603 3.612z"/></g><defs><clipPath id="a"><path fill="#fff" d="M0 0h73v36H0z"/></clipPath></defs></svg>