<svg width="125" height="31" viewBox="0 0 125 31" fill="none" xmlns="http://www.w3.org/2000/svg"><path d="M109.328 10.477c.693 0 1.264-.36 1.341-.823l.684-7.714c0-.762-.896-1.388-2.023-1.388-1.125 0-2.02.626-2.02 1.388l.683 7.714c.076.463.646.823 1.337.823h-.002zm-4.182 2.409c.348-.597.321-1.27-.045-1.567l-6.36-4.448c-.662-.382-1.653.078-2.216 1.05-.565.972-.465 2.057.195 2.44l7.043 3.268c.44.163 1.04-.15 1.385-.747l-.002.004zm8.368-.004c.347.597.944.91 1.385.747l7.043-3.268c.663-.382.758-1.467.198-2.439-.565-.972-1.559-1.432-2.218-1.05l-6.361 4.447c-.363.298-.39.97-.045 1.567l-.002-.004zm-4.186 7.23c.693 0 1.264.356 1.341.82l.684 7.713c0 .765-.896 1.39-2.023 1.39-1.125 0-2.02-.625-2.02-1.39l.683-7.712c.076-.465.646-.821 1.337-.821h-.002zm4.186-2.41c.347-.599.944-.909 1.385-.744l7.043 3.266c.663.382.758 1.468.198 2.44-.565.97-1.559 1.431-2.218 1.05l-6.361-4.443c-.363-.3-.39-.973-.045-1.57h-.003l.001.001zm-8.368 0c.348.596.321 1.268-.045 1.57l-6.36 4.443c-.662.38-1.653-.081-2.216-1.05-.565-.972-.465-2.058.195-2.44l7.043-3.267c.44-.165 1.04.146 1.385.745h-.002" fill="#FDBB30"/><path d="M69.206 19.257c0 .237-.02.48-.086.695-.27.89-1.195 1.644-2.352 1.644-.965 0-1.731-.547-1.731-1.7 0-1.767 1.95-2.254 4.17-2.242v1.603zm3.482-3.078c0-2.912-1.248-5.474-5.466-5.474-2.165 0-3.884.606-4.822 1.146l.687 2.341c.858-.54 2.224-.986 3.517-.986 2.14-.006 2.49 1.208 2.49 1.985v.184c-4.664-.007-7.612 1.602-7.612 4.882 0 2.003 1.501 3.88 4.111 3.88 1.604 0 2.947-.638 3.751-1.661h.08s.532 2.221 3.468 1.371c-.153-.924-.203-1.91-.203-3.096V16.18zM.022 6.74S3.07 19.187 3.557 21.207c.567 2.358 1.59 3.226 4.54 2.64l1.902-7.717c.482-1.918.805-3.285 1.116-5.234h.054c.219 1.97.528 3.322.925 5.24 0 0 .775 3.504 1.172 5.344.397 1.839 1.504 2.999 4.393 2.367l4.534-17.109h-3.66l-1.549 7.398c-.416 2.152-.794 3.836-1.085 5.804h-.052c-.264-1.95-.601-3.566-1.024-5.664l-1.611-7.538H9.398l-1.725 7.348c-.488 2.234-.945 4.037-1.235 5.94h-.053a209.166 209.166 0 0 0-1.123-6.22S4.24 8.55 3.88 6.738H.022zm29.094 12.518c0 .237-.021.48-.087.695-.27.89-1.195 1.644-2.352 1.644-.965 0-1.73-.547-1.73-1.7 0-1.767 1.95-2.254 4.17-2.242l-.001 1.603zm3.481-3.078c0-2.912-1.248-5.474-5.465-5.474-2.166 0-3.886.606-4.823 1.146l.686 2.341c.857-.54 2.223-.986 3.517-.986 2.14-.006 2.491 1.208 2.491 1.985v.184c-4.666-.007-7.612 1.602-7.612 4.882 0 2.003 1.5 3.88 4.109 3.88 1.606 0 2.948-.638 3.753-1.661h.078s.534 2.221 3.47 1.371c-.154-.924-.204-1.91-.204-3.096V16.18zm5.81 4.037V6.738h-3.485v17.109h3.486v-3.633zM84.01 6.738v12.62c0 1.742.33 2.96 1.032 3.706.615.651 1.626 1.073 2.838 1.073 1.03 0 2.044-.196 2.523-.373l-.045-2.714a5.342 5.342 0 0 1-1.324.157c-1.188 0-1.585-.759-1.585-2.321v-4.829h3.035v-3.274H87.45V6.74H84.01zm-8.997 4.256v12.853h3.596v-6.581c0-.356.021-.666.078-.95.266-1.379 1.323-2.259 2.842-2.259.417 0 .715.045 1.038.09v-3.364a3.514 3.514 0 0 0-.792-.079c-1.342 0-2.87.863-3.51 2.715h-.097v-2.425h-3.155zm-34.164 0v12.853h3.503V16.31c0-.354.042-.728.165-1.052.29-.759.998-1.648 2.129-1.648 1.414 0 2.075 1.192 2.075 2.911v7.325h3.5v-7.629c0-.337.047-.744.147-1.042.287-.863 1.05-1.566 2.102-1.566 1.433 0 2.12 1.17 2.12 3.195v7.041h3.504v-7.57c0-3.992-2.034-5.572-4.33-5.572-1.015 0-1.818.253-2.544.697-.61.374-1.156.905-1.633 1.602h-.052c-.553-1.385-1.856-2.298-3.553-2.298-2.181 0-3.161 1.101-3.756 2.036h-.052v-1.746H40.85" fill="#1A75CF"/><path d="M123.709 23.222h.052c.071 0 .116-.029.116-.072 0-.048-.043-.075-.108-.075-.022 0-.045.005-.06.005v.144-.002zm-.009.347h-.186v-.605c.042-.008.141-.023.267-.023.137 0 .199.02.244.05a.156.156 0 0 1 .065.132c0 .062-.057.115-.142.138v.007c.069.019.107.069.127.156.018.087.03.123.042.145h-.211c-.019-.022-.029-.076-.042-.13-.012-.06-.041-.091-.103-.091h-.061v.22zm.077-.802c-.267 0-.469.217-.469.494 0 .27.203.49.477.49.275.004.477-.22.477-.494a.475.475 0 0 0-.48-.49h-.005zm.012-.164a.66.66 0 0 1 .67.653.662.662 0 0 1-.675.659.666.666 0 0 1-.679-.658c0-.362.302-.654.679-.654h.004" fill="#FDBB30"/></svg>