<svg width="158" height="68" viewBox="0 0 158 68" fill="none" xmlns="http://www.w3.org/2000/svg">
<path d="M25.022 61.1406C25.022 64.0868 26.054 65.2404 27.6318 65.2404C31.5803 65.2404 37.871 56.0493 37.6321 46.3996C43.6193 40.1007 50.7965 30.2334 50.7965 22.3303C50.7965 20.4172 50.2526 18.8063 47.9789 18.8063C44.5028 18.8063 39.5356 24.7812 36.3849 30.7142C33.3465 36.8609 30.5041 43.8717 26.731 53.4937C25.8494 55.9071 25.022 58.8302 25.022 61.1406ZM110.429 48.0234V52.9754C110.429 52.9754 112.89 54.749 117.693 54.749C124.981 54.749 128.184 50.6932 128.184 46.2671C128.184 36.6751 115.233 38.968 115.233 32.6029C115.233 30.2108 117.143 28.48 120.349 28.48C124.092 28.48 126.85 30.4724 126.85 30.4724V25.8889C126.85 25.8889 124.287 24.4723 120.591 24.4723C114.358 24.4723 110.475 28.3541 110.475 33.0175C110.475 42.5008 123.386 40.6456 123.386 46.8257C123.386 49.6659 121.044 50.6952 118.016 50.6952C113.681 50.6952 110.429 48.0234 110.429 48.0234ZM157.468 54.0688H152.833V37.6055C152.833 31.4787 150.59 28.4154 146.105 28.4153C143.787 28.4154 141.87 29.2845 140.353 31.0229C138.836 32.7614 138.077 34.9556 138.077 37.6055V54.0688H133.441V25.2016H138.077V29.994H138.19C140.376 26.348 143.542 24.525 147.688 24.525C150.854 24.525 153.275 25.5446 154.953 27.5837C156.63 29.6228 157.468 32.5688 157.468 36.4214L157.468 54.0688ZM105.368 54.0688H100.732V37.4927C100.732 34.2978 100.238 31.9862 99.2483 30.5578C98.2589 29.1295 96.5959 28.4154 94.2592 28.4153C92.2804 28.4154 90.5985 29.3174 89.2135 31.1216C87.8283 32.9258 87.1358 35.0871 87.1358 37.6055V54.0688H82.5V36.9289C82.4999 31.2532 80.3045 28.4154 75.9137 28.4153C73.8784 28.4154 72.2012 29.2658 70.8821 30.9666C69.5629 32.6674 68.9034 34.8804 68.9034 37.6055V54.0688H64.2675V25.2016H68.9034V29.7685H69.0164C71.0705 26.2729 74.0668 24.525 78.0054 24.525C79.9841 24.525 81.7084 25.0748 83.1783 26.1742C84.6482 27.2736 85.6564 28.716 86.2029 30.5014C88.3512 26.5172 91.5548 24.525 95.8138 24.525C102.183 24.525 105.368 28.4435 105.368 36.2805L105.368 54.0688ZM7.91366 67.5823C3.95507 67.5823 0.581055 65.1044 0.581055 59.4878C0.581055 50.8173 8.06289 44.2327 11.4575 42.3705C11.4575 42.3705 16.2069 45.0991 21.1342 46.855C11.3442 40.6777 5.0884 29.4228 5.0884 16.9308C5.0884 5.25629 11.2674 0 16.8462 0C21.334 0 31.9737 4.92346 31.9737 23.8159C31.9737 44.1449 21.3371 67.5823 7.91366 67.5823Z" fill="#000036"/>
</svg>
