<svg width="2544" height="933" viewBox="0 0 2544 933" fill="none" xmlns="http://www.w3.org/2000/svg"><path d="M1048.9 0v209.8c1.7-1.9 2.7-2.9 3.7-4 24-27.6 54.8-41 90.9-42.7 24.3-1.1 47.9 2.4 69.8 13.6 32.4 16.4 51.8 43.5 62.6 77.4 6.4 20 8.9 40.6 8.9 61.6.1 80.2 0 160.3 0 240.5v4.7h-137.5v-6.3c0-68 .2-136-.2-204-.1-10.2-1.5-20.7-4.3-30.5-4.7-16.6-16.1-27.1-33.4-29.7-18.5-2.8-34.9 1.5-46.7 17.1-8.9 11.7-12.4 25.4-12.7 39.8-.5 20.7-.2 41.3-.2 62v151.6H912.3V554 7.1c0-2.3-.2-4.6-.3-7 45.6-.1 91.3-.1 136.9-.1zM2543.9 1c-7.7 18.2-15.4 36.4-23 54.7-40.4 97.4-80.7 194.8-121 292.3-1.2 2.9-2.5 4.5-6 4.4-51.3-.1-102.6-.1-153.9-.1-1.3 0-2.6-.2-4.8-.3 48.7-117.6 97.2-234.8 145.7-352h159c1.4 0 2.7.7 4 1zM734.1 207.6v-35.2h132.1v388.4H734v-35.4c-1.1 1-1.6 1.3-2 1.7-19.7 24.3-45.9 37.1-76.2 41.7-81.6 12.4-158.1-29.2-191.7-107.3-35.5-82.5-27.8-161.8 28.7-233C529 183 578 161 636.5 163.3c37.5 1.5 70.6 14.3 95.9 43.5.2.2.5.2 1.7.8zM576.5 367c0 45.1 35 79.9 80.3 80 45 .1 80-34.8 80.1-79.6.1-45.2-34.9-80.3-80-80.3-45.3.1-80.4 34.9-80.4 79.9zM106.4 705c5.9-14 11.5-27.3 17.2-40.6 13.5-32 27-64.1 40.7-96.1 1.3-3 1.3-5.4 0-8.4-54-127-107.9-254.2-161.7-381.3-.8-1.9-1.6-3.9-2.6-6.4h6.1c45.7 0 91.3.1 137-.1 4.3 0 6.3 1.2 7.9 5.3 28.2 72.4 56.5 144.7 84.8 217.1.6 1.5 1.2 3 2.2 5.4.9-2 1.5-3.2 2-4.4 28.6-72.6 57.3-145.1 85.8-217.7 1.7-4.2 3.6-5.6 8.2-5.6 44.3.2 88.7.1 133 .1h5.9c-.5 1.6-.8 2.9-1.2 4.1-72.6 175-145.2 350-217.7 525.1-1.1 2.8-2.4 4.2-5.7 4.2-45.8-.1-91.7-.1-137.5-.1-1.2-.2-2.4-.4-4.4-.6zM1312.9 367.2c.5-101.8 68.3-183.4 169-200.7 66.6-11.4 127.7 2.5 179.7 47.4 37.6 32.4 59 74.2 65.6 123.3 6.9 51.7-2.3 100.3-31.4 144.1-32.3 48.5-78.3 76.7-135.3 86.5-49.5 8.5-97.5 2.5-142-21.8-58.5-31.8-92.3-81.5-102.6-147.1-1.7-10.4-2.1-21.1-3-31.7zm208.6 78.1c44 0 77.4-33.9 77.5-78.2 0-44.4-33.4-78.2-77.4-78.3-44.3-.1-77.7 33.8-77.7 78.4.1 44.5 33.6 78.2 77.6 78.1zM2169 367c-.6 101.4-67.7 182.6-168 200.4-63.1 11.2-121.8-.8-173-40.8-41.8-32.7-65.8-76.3-73.1-128.7-7.1-50.8 1.5-98.7 29.4-142.1 32.7-50.8 80-80 139.2-89.7 47.3-7.8 93.2-2.2 136 20 60.7 31.5 95.9 81.8 106.5 149.2 1.7 10.4 2 21.1 3 31.7zm-208.6 78.3c44 .1 77.5-33.6 77.6-78 .1-44.5-33.2-78.3-77.1-78.5-44.3-.1-77.9 33.7-77.9 78.2 0 44.4 33.4 78.3 77.4 78.3zM1624.8 728.4v-22.6h79.1v219.8h-79V904c-3.7 3.4-6.8 6.6-10.2 9.4-18.6 15.6-40.4 20.7-64 18.1-37.4-4.1-64.6-24-80.1-57.7-21.5-46.8-18.8-92.9 11.9-135.2 26-35.9 73.8-48.9 112.8-32.7 11.4 4.7 21 11.7 29.5 22.5zm2.2 87.1c0-24.7-20-44.4-45.1-44.4-25.3-.1-45.6 19.8-45.5 44.6.1 24.7 20 44.3 45.2 44.3 25.5.1 45.5-19.4 45.4-44.5zM1298.9 925.7h-80.4v-220h80.2v24.4c1.3-1.4 1.9-1.9 2.3-2.5 16-22.1 38.3-29.9 64.6-28.1 40.4 2.8 62.9 30.5 68.2 66.5 1.1 7.4 1.5 14.9 1.5 22.4.1 43.7.1 87.3.1 131v6.2h-80.6V920c0-37.3.1-74.7-.1-112 0-6.2-1-12.7-2.9-18.6-3.2-10.2-10.7-15.8-21.4-16.7-11-.9-20 2.7-25.9 12.5-4.3 7.2-5.6 15.2-5.6 23.5v117zM1818.4 705.7v22.9c.6.3 1.1.7 1.7 1 .3-.8.3-1.7.8-2.3 15.8-21.8 37.9-29.5 63.8-27.8 42.2 2.8 64.5 32.2 69.2 69.4.8 5.9 1.1 12 1.1 17.9.1 44.8.1 89.7 0 134.5 0 1.3-.1 2.6-.2 4.3h-80.6v-5.9c0-37.2.1-74.3-.1-111.5 0-6.1-.7-12.4-2.4-18.2-3.2-10.5-10.8-16.5-22-17.4-11.3-.8-20.2 3.2-26 13.2-4.4 7.6-5.2 16-5.2 24.6v115.2h-80.2v-220c26.4.1 52.9.1 80.1.1zM2385.8 878.1c-11 18.5-25.7 32.8-45.1 41.4-38 16.7-76.7 17.6-115 1.6-31.5-13.1-50.8-37.6-58.8-70.5-9-36.8-5.4-72.1 17.3-103.5 25.3-35 60.7-49.5 103.2-47.6 21.2.9 41 6.9 58.6 19 26.5 18.3 40.6 44.3 45.9 75.5 2.3 13.7 2.8 27.5 1.1 41.8h-151.8c.4 8.5 3.5 15.2 8.8 21 16.2 17.5 47.6 16.9 63.8-1.5 2.9-3.3 5.1-3.4 8.8-2 20.6 8.1 41.3 16 61.9 23.9.3.1.5.4 1.3.9zm-70.3-88.3c-1.4-18.6-18.6-31.3-39.9-29.6-19.2 1.5-34.6 15.2-33.3 29.6h73.2zM1075.8 770.2h-53.7v155.4h-80.2V770.2h-29.4v-64.6h28.9c.5-8.7.7-16.9 1.6-24.9 3-24.8 12.4-46.6 32.4-62.6 16.3-13.1 35.5-18.6 56-19.9 14.9-.9 29.6.1 43.8 5.4 2.5.9 4.2 1.9 4.2 5.2-.2 20-.1 40-.1 60 0 .8-.2 1.6-.3 1.9-7.4-1.3-14.5-3.3-21.7-3.6-24-1.1-37.2 13.4-34.9 38.3H1075.8v64.8zM2147.7 782.1c-10-3.3-19.3-7.8-29.1-9.3-9-1.3-18.8-.8-27.6 1.4-20.8 5.1-32.8 22-32.3 43 .5 20.1 13.7 36 34.2 40.7 17.6 4.1 34 .9 49.5-8.1 1.4-.8 2.9-1.7 4.3-2.5.1-.1.3.1.9.3 0 .9.1 2 .1 3.1 0 21.7 0 43.3.1 65 0 2.6-.5 4.2-3.1 5.4-46 21.9-117.4 11.9-150.2-40.8-29.3-47.1-25.1-127.9 36.5-163.9 35.8-20.9 73.8-22.8 112.4-7.6 1.8.7 4.2 2.9 4.2 4.5.2 23.2.1 46.3.1 68.8zM2278 386.4c50.8.2 89.2 39.2 89 90.1-.3 51.5-41.1 91.7-93.1 91.5-49.8-.2-88.7-39.7-88.4-89.8.4-51.1 41.5-92 92.5-91.8zM1184.4 925.7h-80.1V705.6h80.1v220.1zM1144 685.1c-24.7-.1-45.1-20.4-44.9-44.8.2-24.2 20.7-44.2 45.1-44.2 25 0 45.7 20.6 45.4 44.9-.3 24.5-20.7 44.2-45.6 44.1z" fill="#fff"/></svg>