<svg width="88" height="36" viewBox="0 0 88 36" fill="none" xmlns="http://www.w3.org/2000/svg"><path d="M11.885 8.145C5.762 8.145.66 10.713.66 18.461c0 6.138 3.43 10.003 11.383 10.003 9.36 0 9.96-6.096 9.96-6.096h-4.535s-.973 3.282-5.702 3.282c-3.851 0-6.622-2.572-6.622-6.177h17.334V17.21c0-3.566-2.29-9.065-10.593-9.065zm-.159 2.892c3.667 0 6.166 2.22 6.166 5.548H5.245c0-3.533 3.262-5.548 6.481-5.548z" fill="#E53238"/><path d="M22.476.643v23.93c0 1.358-.098 3.265-.098 3.265h4.326s.155-1.37.155-2.622c0 0 2.137 3.306 7.949 3.306 6.12 0 10.276-4.2 10.276-10.218 0-5.598-3.818-10.1-10.266-10.1-6.039 0-7.915 3.223-7.915 3.223V.643h-4.427zm11.225 10.52c4.156 0 6.799 3.05 6.799 7.141 0 4.388-3.053 7.258-6.77 7.258-4.434 0-6.827-3.424-6.827-7.219 0-3.536 2.147-7.18 6.798-7.18z" fill="#0064D2"/><path d="M55.833 8.145c-9.212 0-9.802 4.986-9.802 5.783h4.585s.24-2.91 4.9-2.91c3.03 0 5.376 1.37 5.376 4.004v.938h-5.375c-7.136 0-10.91 2.064-10.91 6.252 0 4.122 3.487 6.364 8.197 6.364 6.42 0 8.488-3.507 8.488-3.507 0 1.395.11 2.77.11 2.77h4.075s-.158-1.704-.158-2.794v-9.422c0-6.178-5.04-7.478-9.486-7.478zm5.059 10.628v1.25c0 1.631-1.018 5.686-7.01 5.686-3.282 0-4.69-1.62-4.69-3.497 0-3.417 4.739-3.439 11.7-3.439z" fill="#F5AF02"/><path d="M62.85 8.927h5.157l7.402 14.662 7.386-14.662h4.672L74.016 35.03h-4.901l3.882-7.276L62.849 8.927z" fill="#86B817"/></svg>