<svg viewBox="0 0 236 77" width="236" height="77" fill="none" xmlns="http://www.w3.org/2000/svg">
                <g clip-path="url(#clip02)" fill="#000036">
                  <path d="M57.35 35.602l-.392 2.08h-.118c-.51-1.142-1.924-2.773-5.065-2.773-5.064 0-10.246 4.078-11.385 10.482-.981 5.628 1.61 10.562 7.617 10.562 2.198 0 4.71-.897 6.046-2.814h.117l-.353 2.121h5.614l3.494-19.657H57.35zm-1.845 9.789c-.353 1.916-2.12 5.057-5.653 5.057-3.455 0-4.162-3.14-3.848-4.976.393-2.243 2.317-5.057 5.614-5.057 3.22.04 4.319 2.692 3.887 4.976zM66.102 35.602h5.26l-.353 2.08h.118c.667-.938 2.002-2.773 5.221-2.773l-1.06 5.955c-2.67.04-4.593.611-5.103 3.63L68.26 55.26h-5.654l3.495-19.657zM80.122 27.935h5.693l-2.67 14.804h.079l6.556-7.137h6.674l-8.637 8.646 4.947 11.011h-6.4l-3.65-9.461h-.119l-1.648 9.461h-5.693l4.868-27.324z" />
                  <path d="M105.526 34.91c-5.732 0-10.836 5.138-11.778 10.603-1.06 5.832 2.748 10.4 8.166 10.4 1.924 0 3.926-.612 5.653-1.795 1.806-1.142 3.455-2.814 4.711-5.016h-5.771c-.942 1.02-2.041 1.835-3.769 1.835-2.198 0-3.847-1.387-3.73-3.711h14.173c.157-.449.275-.816.393-1.55 1.099-5.995-2.277-10.767-8.048-10.767zm-5.732 8.36c.432-1.142 2.002-3.385 4.947-3.385 2.944 0 3.651 2.202 3.651 3.385h-8.598zM32.892 27.935L22.92 43.514h-.078v-15.58h-4.83L.308 55.26h6.87L17.11 39.68h.078v15.58h4.868l9.933-15.58h.079v15.58h5.692V27.934h-4.868zM127.939 35.602h-3.572l1.06-5.832h-4.947l-.393 2.243c-.432 2.569-2.002 3.344-4.043 3.589h-.04l-.863 4.445h2.787l-2.709 15.171h5.654l2.708-15.171h3.612l.746-4.445zM215.446 47.836c-1.845 4.446-6.281 8.116-11.385 8.116-5.732 0-9.305-4.69-8.284-10.563 1.06-5.75 6.164-10.44 11.856-10.44 4.986 0 8.441 3.466 8.559 8.279h-5.732c-.353-1.387-1.217-2.774-3.612-2.774-2.669-.122-4.868 2.121-5.378 4.976-.511 2.896.903 5.016 3.612 5.016 2.316 0 3.729-1.386 4.554-2.65l5.81.04zM168.609 20.96l-10.992 6.974h3.101l-9.972 15.58h-.117v-15.58h-4.869l-9.932 15.58h-.118v-15.58h-5.653v27.325h4.946l9.972-15.58h.118v15.58h4.868l17.628-27.325h2.787l-1.767-6.974zm10.718 34.299h-5.614l.354-2.121h-.118c-1.335 1.917-3.848 2.814-6.046 2.814-6.007 0-8.598-4.894-7.617-10.563 1.1-6.403 6.321-10.481 11.386-10.481 3.101 0 4.554 1.59 5.064 2.773h.118l.393-2.08h5.614l-3.534 19.658zm-9.5-4.772c3.494 0 5.26-3.14 5.653-5.057.392-2.365-.668-4.976-3.887-4.976-3.258 0-5.182 2.814-5.614 5.057-.314 1.836.393 4.976 3.848 4.976zm27.167-14.886h-3.533l1.06-5.832h-4.947l-.393 2.243c-.431 2.57-2.002 3.344-4.043 3.59h-.079l-.824 4.445h2.787l-2.709 15.17h5.654l2.709-15.17h3.611l.707-4.446zm23.791-7.667h5.654l-1.728 9.747h.118c1.217-1.835 2.827-2.773 5.339-2.773 1.806 0 3.848.693 4.79 2.202 1.217 1.917 1.099 3.63.432 7.137l-1.924 10.97h-5.653l1.884-10.684c.157-.938.707-4.12-2.277-4.12-3.18 0-3.729 2.937-3.886 3.916l-1.924 10.889h-5.654l4.829-27.284z" />
                </g>
                <defs>
                  <clipPath id="clip02">
                    <path fill="#fff" transform="translate(0 .234)" d="M0 0h235.95v76.524H0z" />
                  </clipPath>
                </defs>
              </svg>