<svg width="58" height="35" viewBox="0 0 58 35" fill="none" xmlns="http://www.w3.org/2000/svg"><path d="M57.266 29.849h-7.83c-.072 0-.204-.318-.241-.384-1.077-1.95-2.154-3.91-3.225-5.856-1.146 2.072-2.26 4.18-3.403 6.255-2.565.007-5.107-.012-7.649-.006.288-.54.595-1.068.902-1.598 2.138-3.706 4.245-7.462 6.387-11.17C39.93 13.1 37.62 9.143 35.33 5.164c-.006 0-.022-.025-.006-.022h7.868c.967 1.765 1.91 3.552 2.861 5.33.99-1.763 1.945-3.559 2.924-5.33h7.605c.007.031-.015.066-.031.09-2.22 3.914-4.493 7.84-6.71 11.759 2.465 4.29 4.976 8.576 7.424 12.857z" fill="#272727"/><path d="M38.256 14.732c.2.816.316 1.715.316 2.66 0 2.949-.851 5.134-2.035 6.912-.2.301-.403.59-.623.867a11.183 11.183 0 0 1-2.285 2.18 12.06 12.06 0 0 1-1.863 1.108c-1.34.63-2.958 1.124-4.824 1.124-2.918 0-5.073-.892-6.816-2.117-1.744-1.228-3.103-2.851-4.027-4.899-.62-1.372-1.027-2.955-1.074-4.883-.021-.955.098-1.897.27-2.714.438-2.06 1.3-3.674 2.389-5.065 1.09-1.388 2.47-2.475 4.139-3.294.654-.32 1.387-.594 2.185-.792a10.926 10.926 0 0 1 2.636-.333h.016c.933-.044 1.922.107 2.698.28.808.179 1.556.452 2.223.754 2.067.935 3.607 2.336 4.847 4.085.817 1.147 1.43 2.522 1.828 4.127zm-9.392 8.184c.075-.302.053-.688.053-1.087v-9.076c0-.389-.044-.69-.157-.973a2.116 2.116 0 0 0-.45-.685c-.367-.373-.918-.71-1.61-.656a1.832 1.832 0 0 0-.857.286 2.12 2.12 0 0 0-.94 1.319c-.072.298-.069.678-.069 1.07v9.076c0 .195-.009.383.016.55.066.477.279.86.557 1.146.36.368.918.675 1.638.597.93-.1 1.612-.72 1.819-1.567zm-13.52-11.033H7.027c-.034 1.037-.006 2.183-.015 3.226 2.247.019 4.53.003 6.794.006v6.761c-2.28.007-4.578-.01-6.845.007.004 2.681.016 5.313.016 7.995 0 .01-.003.013-.006.016H.035c-.012.003-.012-.006-.022-.006A7243.7 7243.7 0 0 1 .01 5.128c0-.009 0-.022.006-.022h14.856c.01 0 .013 0 .016.007.156 2.255.307 4.513.457 6.77z" fill="#272727"/></svg>