<svg width="112" height="35" viewBox="0 0 112 35" fill="none" xmlns="http://www.w3.org/2000/svg"><path fill-rule="evenodd" clip-rule="evenodd" d="M69.376 27.087c-6.4 4.774-15.71 7.318-23.74 7.318-11.25 0-21.335-4.187-29.015-11.153-.582-.548-.078-1.292.66-.861 8.262 4.853 18.464 7.749 29.015 7.749 7.099 0 14.934-1.488 22.15-4.58 1.086-.43 1.978.744.93 1.527z" fill="#F90"/><path fill-rule="evenodd" clip-rule="evenodd" d="M72.054 23.995c-.815-1.056-5.431-.509-7.487-.235-.62.079-.737-.47-.155-.86 3.685-2.622 9.697-1.84 10.396-.979.698.861-.194 6.966-3.647 9.862-.543.43-1.047.196-.814-.391.776-1.957 2.521-6.301 1.707-7.397z" fill="#F90"/><path fill-rule="evenodd" clip-rule="evenodd" d="M64.683 4.506V1.963c0-.392.271-.626.62-.626h11.25c.349 0 .66.274.66.626v2.152c0 .352-.311.822-.854 1.605l-5.819 8.374c2.172-.039 4.461.274 6.4 1.37.427.235.544.626.582.978v2.7c0 .392-.388.823-.814.588-3.453-1.84-8.069-2.035-11.87.039-.388.196-.815-.196-.815-.587v-2.583c0-.391 0-1.096.427-1.722l6.75-9.744h-5.858c-.349 0-.66-.274-.66-.627zM23.68 20.279h-3.414c-.31-.04-.582-.274-.62-.587V2c0-.351.31-.625.659-.625h3.18c.35 0 .582.274.621.587v2.309h.078C25 2.04 26.59.984 28.685.984c2.133 0 3.49 1.057 4.422 3.288C33.92 2.04 35.822.984 37.839.984c1.436 0 2.987.587 3.957 1.957 1.086 1.487.853 3.64.853 5.557v11.193c0 .352-.31.626-.66.626h-3.374c-.349-.04-.62-.313-.62-.626v-9.393c0-.743.077-2.622-.078-3.326-.272-1.174-1.009-1.526-2.017-1.526-.815 0-1.707.548-2.056 1.448-.35.9-.31 2.387-.31 3.404v9.393c0 .352-.31.626-.66.626H29.46c-.349-.04-.62-.313-.62-.626v-9.393c0-1.956.31-4.891-2.095-4.891-2.444 0-2.366 2.817-2.366 4.891v9.393a.683.683 0 0 1-.698.587zM86.91.984c5.082 0 7.836 4.383 7.836 9.98 0 5.4-3.026 9.705-7.836 9.705-4.965 0-7.68-4.383-7.68-9.862C79.19 5.29 81.944.984 86.91.984zm0 3.64c-2.522 0-2.677 3.483-2.677 5.635 0 2.153-.038 6.77 2.638 6.77 2.638 0 2.793-3.717 2.793-5.987 0-1.487-.078-3.287-.504-4.696-.388-1.252-1.164-1.722-2.25-1.722zM101.3 20.278h-3.413c-.35-.04-.621-.313-.621-.627V1.924a.673.673 0 0 1 .66-.587h3.18c.311 0 .543.234.621.508v2.7h.078c.969-2.426 2.288-3.56 4.654-3.56 1.513 0 3.026.547 3.996 2.074.892 1.408.892 3.796.892 5.517V19.73c-.039.313-.31.548-.659.548h-3.414c-.31-.04-.582-.274-.621-.548v-9.627c0-1.957.233-4.775-2.133-4.775-.815 0-1.59.548-1.978 1.41-.466 1.095-.543 2.152-.543 3.365v9.548a.714.714 0 0 1-.699.627zm-45.58-8.453c0 1.33.04 2.465-.62 3.678-.543.979-1.396 1.566-2.366 1.566-1.319 0-2.095-1.018-2.095-2.505 0-2.935 2.6-3.483 5.082-3.483v.744zm3.453 8.413a.696.696 0 0 1-.814.079c-1.125-.94-1.358-1.41-1.979-2.31-1.862 1.918-3.22 2.505-5.624 2.505-2.87 0-5.12-1.8-5.12-5.361 0-2.818 1.512-4.696 3.646-5.635 1.862-.822 4.46-.979 6.439-1.213v-.431c0-.822.078-1.8-.427-2.505-.427-.626-1.202-.9-1.9-.9-1.32 0-2.483.666-2.755 2.074-.077.314-.271.627-.581.627l-3.298-.353c-.271-.078-.582-.274-.504-.704.776-4.07 4.383-5.283 7.642-5.283 1.668 0 3.84.43 5.159 1.722 1.668 1.565 1.513 3.678 1.513 5.948v5.362c0 1.604.66 2.309 1.28 3.209.233.313.271.704 0 .9-.737.587-1.978 1.682-2.677 2.27zm-48.256-8.413c0 1.33.04 2.465-.62 3.678-.543.979-1.397 1.566-2.367 1.566-1.318 0-2.094-1.018-2.094-2.505 0-2.935 2.599-3.483 5.081-3.483v.744zm3.414 8.413a.697.697 0 0 1-.815.079c-1.125-.94-1.357-1.41-1.978-2.31-1.862 1.918-3.22 2.505-5.625 2.505-2.87 0-5.12-1.8-5.12-5.361 0-2.818 1.513-4.696 3.646-5.635 1.862-.822 4.461-.979 6.44-1.213v-.431c0-.822.077-1.8-.427-2.505-.427-.626-1.203-.9-1.9-.9-1.32 0-2.483.666-2.755 2.074-.078.314-.272.627-.582.627L1.92 6.815c-.272-.078-.582-.274-.504-.704C2.19 2.041 5.798.828 9.056.828c1.668 0 3.84.43 5.16 1.722 1.668 1.565 1.513 3.678 1.513 5.948v5.362c0 1.604.659 2.309 1.28 3.209.232.313.271.704 0 .9-.738.587-1.979 1.682-2.677 2.27z" fill="#000"/></svg>