<svg width="120" height="96" viewBox="0 0 120 96" fill="none" xmlns="http://www.w3.org/2000/svg">
<g clip-path="url(#clip0)">
<path d="M103.646 32.05L101.138 37.3619C101.073 37.5003 101.075 37.661 101.143 37.798L105.325 46.2061C105.445 46.4469 105.734 46.5498 105.979 46.4392L114.047 42.7962C114.306 42.6793 114.416 42.3706 114.289 42.1166L110.343 34.2379C110.287 34.1257 110.191 34.0388 110.073 33.9943L104.275 31.7959C104.031 31.7034 103.757 31.8141 103.646 32.05Z" stroke="black"/>
<path d="M101.348 37.5276L103.845 32.4653L110.089 34.5466L114.252 42.4556L105.927 46.2019L101.348 37.5276Z" fill="#FB528D"/>
<circle cx="105.509" cy="36.2114" r="1.66504" fill="white"/>
<circle cx="48.2896" cy="46.7247" r="40.7936" fill="url(#paint0_linear)" stroke="black" stroke-width="2"/>
<ellipse cx="47.4581" cy="44.6432" rx="40.7936" ry="41.2098" stroke="white" stroke-width="2"/>
<mask id="path-6-inside-1" fill="white">
<rect x="5" y="24.2463" width="88.2473" height="56.6115" rx="1"/>
</mask>
<rect x="5" y="24.2463" width="88.2473" height="56.6115" rx="1" stroke="black" stroke-width="4" mask="url(#path-6-inside-1)"/>
<path d="M7.20867 25.9116H91.5827V79.193H5.83301L7.20867 25.9116Z" fill="white"/>
<path d="M12.049 40.0597H11.0704C10.7843 40.0584 10.5104 39.9516 10.309 39.7628C10.1077 39.5739 9.99522 39.3186 9.99641 39.0528V37.2345V35.6293C9.99599 35.6238 9.99599 35.6182 9.99641 35.6126V34.8831C9.99641 34.7912 10.5145 34.294 11.2557 33.6732L11.2979 33.7233C11.3197 33.7515 11.3437 33.778 11.3699 33.8027C11.5966 33.9982 11.8392 34.177 12.0958 34.3375C12.1279 34.4918 12.2066 34.6344 12.3225 34.7488C12.4385 34.8632 12.587 34.9448 12.7508 34.9839C12.9146 35.0231 13.0871 35.0182 13.2481 34.97C13.4091 34.9217 13.552 34.832 13.6603 34.7113C13.7686 34.5906 13.8378 34.4438 13.8599 34.288C13.882 34.1322 13.8561 33.9737 13.7851 33.8311C13.7141 33.6884 13.6011 33.5674 13.459 33.482C13.317 33.3967 13.1518 33.3506 12.9826 33.3489C12.929 33.3492 12.8754 33.3537 12.8225 33.3623C12.6317 33.241 12.4491 33.1091 12.2757 32.9671C12.2633 32.9553 12.2519 32.9428 12.2415 32.9295C12.2352 32.922 12.2289 32.9136 12.2226 32.9069C12.3287 32.8234 12.4115 32.7649 12.4825 32.7139H12.487C12.7335 32.5351 12.8567 32.4448 12.9817 32.4448C13.1068 32.4448 13.2237 32.5284 13.4827 32.7172C14.3381 33.3414 15.9545 34.5973 15.9536 34.8798V39.0578C15.9548 39.3235 15.8424 39.5787 15.6413 39.7675C15.4401 39.9563 15.1665 40.0632 14.8805 40.0647H13.981L13.4414 38.2381C13.6471 38.1476 13.8135 37.9948 13.9133 37.8048C14.0131 37.6148 14.0403 37.3989 13.9904 37.1926C13.9405 36.9863 13.8165 36.802 13.6388 36.6699C13.4612 36.5378 13.2403 36.4658 13.0128 36.4658C12.7852 36.4658 12.5644 36.5378 12.3867 36.6699C12.209 36.802 12.085 36.9863 12.0351 37.1926C11.9852 37.3989 12.0124 37.6148 12.1122 37.8048C12.212 37.9948 12.3785 38.1476 12.5842 38.2381L12.049 40.0597Z" fill="black"/>
<path d="M12.908 34.4521C12.8462 34.452 12.7859 34.4352 12.7344 34.4036C12.6489 34.3501 11.8907 33.8788 11.6073 33.6148C10.8878 32.9463 10.8689 31.8809 11.5624 31.2367C11.8232 30.9943 12.2819 30.7604 12.979 31.0211C13.3559 31.1615 13.7616 31.4322 14.1843 31.8249C14.4748 32.0948 14.7465 32.2243 14.9713 32.2026C15.1283 32.1796 15.269 32.0997 15.3626 31.9803C15.3851 31.9481 15.4141 31.9202 15.4481 31.8984C15.4822 31.8766 15.5205 31.8612 15.5609 31.8531C15.6013 31.8451 15.6431 31.8445 15.6837 31.8514C15.7244 31.8583 15.7632 31.8726 15.7979 31.8934C15.8327 31.9143 15.8626 31.9413 15.8861 31.9729C15.9096 32.0045 15.9262 32.0401 15.9349 32.0777C15.9436 32.1152 15.9442 32.154 15.9368 32.1918C15.9293 32.2296 15.9139 32.2656 15.8915 32.2979C15.7944 32.4305 15.6681 32.5425 15.521 32.6263C15.3738 32.7101 15.2092 32.764 15.0379 32.7842C14.6125 32.8268 14.1744 32.643 13.7391 32.2385C13.3793 31.9043 13.0375 31.6728 12.7443 31.5634C12.3341 31.408 12.1371 31.53 12.0076 31.6503C11.5579 32.0681 11.5795 32.7625 12.0526 33.2012C12.2559 33.39 12.8621 33.7819 13.0834 33.9164C13.1395 33.9513 13.1822 34.0021 13.2049 34.0612C13.2276 34.1203 13.2293 34.1847 13.2096 34.2447C13.19 34.3048 13.15 34.3574 13.0957 34.3947C13.0414 34.4321 12.9755 34.4522 12.908 34.4521Z" fill="#272727"/>
<path d="M105.828 36.4471C104.496 21.0079 93.6808 4.51012 75.8373 2.72261C60.7936 1.21559 50.3645 12.4564 46.6444 26.0449C45.2608 31.0989 45.7583 36.4196 46.7064 41.5732V41.5732" stroke="black" stroke-width="2"/>
<rect x="21.3164" y="63.875" width="52.2814" height="7.73465" fill="white" stroke="black"/>
<path d="M46.8945 68.1265L51.3228 68.1265" stroke="black" stroke-linecap="round"/>
<path d="M56.0933 68.1265L60.1809 68.1265" stroke="black" stroke-linecap="round"/>
<path d="M64.3594 68.3091H68.6971" stroke="black" stroke-linecap="round"/>
<circle cx="47.0425" cy="46.9575" r="10.3308" fill="#FB528D" stroke="black" stroke-width="1.25351"/>
<path d="M44.0173 45.5028C43.7181 45.1564 43.1948 45.1181 42.8484 45.4173C42.502 45.7165 42.4638 46.2398 42.763 46.5862L44.0173 45.5028ZM46.8628 50.0649L46.2356 50.6067L46.976 51.4638L47.5689 50.4987L46.8628 50.0649ZM51.4013 44.2607C51.6409 43.8707 51.519 43.3604 51.129 43.1208C50.739 42.8812 50.2286 43.0031 49.989 43.3931L51.4013 44.2607ZM42.763 46.5862L46.2356 50.6067L47.4899 49.5232L44.0173 45.5028L42.763 46.5862ZM47.5689 50.4987L51.4013 44.2607L49.989 43.3931L46.1566 49.6311L47.5689 50.4987Z" fill="black"/>
<rect x="5" y="79.1929" width="88.2473" height="2.49756" rx="1" fill="black"/>
<path d="M59.1181 41.8113L60.3643 41" stroke="black" stroke-width="0.75" stroke-linecap="round"/>
<path d="M60.2798 48.4206L65.1684 48.0165" stroke="black" stroke-width="0.75" stroke-linecap="round"/>
<path d="M5.41797 27.9927H92.4165" stroke="black"/>
<path d="M29.8662 66.7643L31.2287 66.083V69.1487" stroke="black"/>
<path d="M37.6992 66.083H40.0837L39.4024 69.1487" stroke="black"/>
<path d="M78.5079 75.2773L74.2583 69.5232L81.7495 69.9191L78.7354 72.1451L78.5079 75.2773Z" fill="black"/>
</g>
<defs>
<linearGradient id="paint0_linear" x1="48.2896" y1="5.93115" x2="48.2896" y2="87.5183" gradientUnits="userSpaceOnUse">
<stop stop-color="#1AA5BD"/>
<stop offset="1" stop-color="#188CAE"/>
</linearGradient>
<clipPath id="clip0">
<rect width="120" height="96" fill="white"/>
</clipPath>
</defs>
</svg>
