<svg viewBox="0 0 64 75" width="64" height="75" fill="none" xmlns="http://www.w3.org/2000/svg">
                <g clip-path="url(#clip0)" fill-rule="evenodd" clip-rule="evenodd" fill="#000036">
                  <path d="M0 58.548h63.77v7.663H0v-7.663zM14.68 10.108L3.96 42.08h7.762l7.28-22.598 3.65 11.298h-4.72l-1.886 6.45h8.69l1.566 4.85h7.983L23.567 10.11H14.68zM46.483 10.108H35.34V42.08h7.706V16.558h3.105c3.603 0 5.654 1.708 5.654 4.795 0 3.032-2.051 4.796-5.654 4.796h-.5v6.45h.832c8.315 0 13.194-4.163 13.194-11.246 0-7.22-4.879-11.245-13.194-11.245z" />
                </g>
                <defs>
                  <clipPath id="clip0">
                    <path fill="#fff" transform="translate(0 .36)" d="M0 0h63.77v74.399H0z" />
                  </clipPath>
                </defs>
              </svg>