<svg viewBox="0 0 64 75" width="64" height="75" fill="none" xmlns="http://www.w3.org/2000/svg">
                <g clip-path="url(#clip01)">
                  <path fill-rule="evenodd" clip-rule="evenodd" d="M6.726 42.122c-3.705 0-6.708-2.963-6.708-6.618 0-3.655 3.003-6.618 6.708-6.618 1.353 0 2.613.395 3.667 1.075l18.275 12.16H6.726zM8.58 27.229c-3.104-1.99-3.986-6.086-1.97-9.15 2.015-3.064 6.165-3.935 9.269-1.945a6.606 6.606 0 012.478 2.87l9.34 21.027L8.58 27.229zm48.444 14.9c3.713 0 6.724-2.967 6.724-6.626 0-3.659-3.01-6.624-6.724-6.624a6.764 6.764 0 00-3.675 1.076L35.032 42.128h21.992zm-1.854-14.9c3.11-1.992 3.995-6.093 1.975-9.16-2.02-3.066-6.18-3.938-9.29-1.946a6.612 6.612 0 00-2.484 2.873l-9.36 21.047L55.17 27.23zM34.54 14.777c-.478.367-1.791.566-1.507 2.874L35.87 37.24l9.457-21.351c1.512-3.344-.015-7.261-3.41-8.75-3.395-1.489-7.373.015-8.884 3.359a6.51 6.51 0 00-.54 3.445l1.782-.003c1.01.05 1.542.315.267.838zM18.42 15.893c-1.509-3.34.015-7.255 3.403-8.742 3.388-1.487 7.358.015 8.866 3.356a6.508 6.508 0 01.497 3.743l-3.329 22.975-9.437-21.332zM59.48 67.68c-1.086.437-2.701.88-4.198.88-6.842 0-12.388-5.188-12.388-11.587 0-6.4 5.546-11.587 12.388-11.587 1.472 0 3.087.354 4.198.858v4.43a7.685 7.685 0 00-4.198-1.239c-4.223 0-7.648 3.375-7.648 7.537 0 4.163 3.425 7.538 7.648 7.538a7.75 7.75 0 004.198-1.225v4.395zM18.32 46.143h4.548v22.139L8.867 55.652v12.145H4.319V45.664l14 12.63v-12.15zm19.788 10.083c1.388-1.017 2.597-1.986 2.586-4.544-.015-3.365-2.773-5.56-6.192-5.56h-9.025V67.82H35.6c3.585 0 6.313-2.687 6.313-6.217 0-3.529-2.954-5.07-3.805-5.376zm-8.058-6.824h3.38c1.583 0 2.865 1.264 2.865 2.822s-1.282 2.821-2.865 2.821h-3.38v-5.643zm4.115 15.16H30.05v-6.276l4.116-.018c1.764 0 3.194 1.409 3.194 3.147 0 1.738-1.43 3.147-3.195 3.147z" fill="#000036" />
                </g>
                <defs>
                  <clipPath id="clip01">
                    <path fill="#fff" transform="translate(0 .36)" d="M0 0h63.77v74.399H0z" />
                  </clipPath>
                </defs>
              </svg>