<svg viewBox="0 0 124 75" width="124" height="75" fill="none" xmlns="http://www.w3.org/2000/svg">
                <path d="M121.729 63.809h-16.645c-.153 0-.432-.674-.512-.814-2.289-4.146-4.579-8.311-6.855-12.45-2.436 4.406-4.805 8.885-7.234 13.297-5.45.014-10.855-.026-16.258-.013.612-1.148 1.264-2.27 1.916-3.398 4.546-7.877 9.025-15.86 13.577-23.745-4.839-8.478-9.75-16.889-14.615-25.347-.013 0-.046-.053-.013-.046h16.724c2.057 3.751 4.06 7.55 6.083 11.328 2.103-3.745 4.133-7.563 6.216-11.328h16.165c.013.066-.033.14-.066.193-4.719 8.318-9.551 16.662-14.262 24.993 5.237 9.12 10.575 18.231 15.779 27.33z" fill="#000036" />
                <path d="M81.32 31.675c.426 1.736.673 3.645.673 5.655 0 6.268-1.81 10.914-4.326 14.692a27.01 27.01 0 01-1.325 1.843 23.771 23.771 0 01-4.858 4.633c-1.238.88-2.529 1.682-3.96 2.356-2.848 1.342-6.289 2.39-10.255 2.39-6.203 0-10.782-1.896-14.488-4.5-3.707-2.61-6.596-6.06-8.56-10.413-1.317-2.917-2.182-6.282-2.282-10.38-.046-2.03.206-4.033.572-5.768.932-4.38 2.762-7.81 5.078-10.768 2.316-2.95 5.251-5.26 8.799-7.003a23.352 23.352 0 014.645-1.682 23.222 23.222 0 015.603-.707h.034c1.983-.094 4.086.227 5.736.594 1.718.38 3.308.961 4.726 1.602 4.392 1.99 7.666 4.966 10.302 8.685 1.737 2.436 3.041 5.36 3.886 8.771zM61.355 49.072c.16-.641.113-1.462.113-2.31V27.47c0-.828-.093-1.469-.333-2.07a4.497 4.497 0 00-.958-1.455c-.779-.794-1.95-1.509-3.42-1.395a3.895 3.895 0 00-1.824.607 4.507 4.507 0 00-1.997 2.804c-.153.634-.146 1.442-.146 2.277V47.53c0 .414-.02.814.033 1.168a4.284 4.284 0 001.185 2.437c.765.78 1.95 1.435 3.48 1.268 1.977-.214 3.428-1.529 3.867-3.331zM32.618 25.62H14.935c-.073 2.203-.013 4.64-.033 6.855 4.778.04 9.63.007 14.442.014v14.372c-4.845.014-9.73-.02-14.548.014.006 5.7.033 11.295.033 16.995 0 .02-.007.027-.014.034H.075c-.027.007-.027-.014-.047-.014-.033-17.503-.033-35.12-.007-52.63 0-.02 0-.046.013-.046h31.58c.02 0 .026 0 .032.013.333 4.793.653 9.593.972 14.393z" fill="#000036" />
              </svg>