<svg viewBox="0 0 156 77" width="156" height="77" fill="none" xmlns="http://www.w3.org/2000/svg">
                <g clip-path="url(#clip03)" fill-rule="evenodd" clip-rule="evenodd" fill="#000036">
                  <path d="M133.059 12.999c-12.214 0-22.118 10.36-22.118 23.138 0 12.78 9.903 23.139 22.118 23.139 12.216 0 22.119-10.36 22.119-23.139S145.275 13 133.059 13zm0 36.73c-9.083-.04-16.469-6.279-20.378-13.757 3.948-7.438 11.373-13.47 20.378-13.47 9.163 0 16.509 5.991 20.379 13.47-3.87 7.478-11.136 13.799-20.379 13.757z" />
                  <path d="M133.062 48.41c6.477 0 11.728-5.494 11.728-12.27 0-6.777-5.25-12.27-11.728-12.27s-11.729 5.493-11.729 12.27c0 6.776 5.252 12.27 11.729 12.27zm-96.34-34.18h19.786c8.404 0 14.255 5.398 14.255 10.906 0 4.118-1.489 8.013-9.787 9.905 3.192.445 11.915 2.893 11.915 11.573 0 8.681-9.149 12.91-15.426 12.91H36.721v-.445h20.532c4.893 0 7.978-2.115 7.978-11.797s-3.404-11.908-7.66-12.02H51.19v-.443h6.755c2.766 0 5.691-.445 5.691-9.794 0-9.348-3.51-10.35-7.234-10.35h-5.213v44.404h-7.873V14.675H36.72v-.445h.001zM8.781 37.162c0-17.14 4.787-23.26 10.425-23.26 7.98 0 12.34 12.354 13.724 17.14V14.458c-1.383 1.113-2.022 1.67-3.511 1.67-1.49 0-3.724-.78-4.787-1.447-1.064-.668-3.192-1.224-5.32-1.224C12.294 13.458.06 23.14.06 37.162c0 16.581 10.85 23.704 19.255 23.704 2.127 0 4.468-.89 5.532-1.558 1.063-.668 3.085-1.558 4.574-1.558 1.49 0 2.128.557 3.51 1.67V42.726C31.76 49.18 27.187 60.42 19.208 60.42c-2.286 0-5.425-1.113-6.86-2.671-.442-.48-3.564-2.783-3.564-20.588zm92.455 13.45c-.105 3.673-2.766 8.57-8.298 8.458-5.532-.111-12.233-4.451-14.786-16.137v15.803c1.063-1 2.872-2.782 5.745-1.447 2.872 1.336 7.128 2.226 9.041 2.226 1.917 0 12.447-2.115 12.873-14.801.107-6.343-4.256-9.57-6.915-10.573-3.086-1.224-7.446-2.67-10-3.561-2.553-.89-6.702-3.672-6.596-8.792.107-5.12 3.085-7.901 7.129-7.901 4.042 0 9.467 3.339 12.233 15.135v-15.69c-1.596 1.446-2.873 2.114-3.83 2.114-.85 0-3.323-1.016-4.574-1.42-1.383-.444-2.74-.612-4.47-.583-3.03.049-10.158 3.894-10.637 14.245-.35 7.562 5 10.462 7.447 11.35 2.127.78 8.298 3.117 10.105 3.896 1.81.778 5.747 3.45 5.533 7.678z" />
                </g>
                <defs>
                  <clipPath id="clip03">
                    <path fill="#fff" transform="translate(0 .234)" d="M0 0h155.174v76.524H0z" />
                  </clipPath>
                </defs>
              </svg>